# xmcd CD database file
#
# Track frame offsets:
#	150
#	39785
#	54842
#	95340
#	143460
#	199415
#	227900
#	256845
#	279640
#	303950
#	325250
#
# Disc length: 4630 seconds
#
# Revision: 0
# Processed by: cddbd v1.4PL0 Copyright (c) Steve Scherf et al.
# Submitted via: CDex 1.50beta10
#
DISCID=8c12140b
DTITLE=Al Di Meola - revisited
DYEAR=2003
DGENRE=Jazz
TTITLE0=Song to the Pharoah Kings
TTITLE1=Coral
TTITLE2=Traces of a Tear
TTITLE3=Cielo E Terra
TTITLE4=Soaring Through a Dream
TTITLE5=Broken Heart
TTITLE6=Beijing Demons
TTITLE7=Rhapsody of Fire
TTITLE8=Maraba
TTITLE9=Solace
TTITLE10=Marina
EXTD=YEAR: 2003
EXTT0=
EXTT1=
EXTT2=
EXTT3=
EXTT4=
EXTT5=
EXTT6=
EXTT7=
EXTT8=
EXTT9=
EXTT10=
PLAYORDER=
